<svg width="16" height="16" viewBox="0 0 16 16" fill="none" xmlns="http://www.w3.org/2000/svg">
<path d="M6.87464 9.12504L14.7496 1.25004M6.97033 9.37109L8.94141 14.4396C9.11505 14.8861 9.20187 15.1094 9.32698 15.1745C9.43543 15.231 9.56461 15.2311 9.67313 15.1747C9.79831 15.1097 9.88539 14.8866 10.0596 14.4402L15.0023 1.77444C15.1595 1.37155 15.2381 1.17011 15.1951 1.04139C15.1578 0.929601 15.0701 0.841875 14.9583 0.804531C14.8296 0.761529 14.6281 0.840141 14.2252 0.997364L1.55943 5.94012C1.11313 6.11429 0.889975 6.20137 0.824943 6.32655C0.768567 6.43507 0.768643 6.56425 0.825146 6.6727C0.890326 6.7978 1.11358 6.88463 1.56009 7.05827L6.62859 9.02935C6.71923 9.0646 6.76455 9.08222 6.80271 9.10944C6.83653 9.13357 6.86611 9.16315 6.89024 9.19697C6.91746 9.23513 6.93508 9.28045 6.97033 9.37109Z" stroke="#212529" stroke-width="1.5" stroke-linecap="round" stroke-linejoin="round"/>
</svg>